<svg xmlns="http://www.w3.org/2000/svg" xmlns:xlink="http://www.w3.org/1999/xlink" aria-hidden="true" role="img" class="iconify iconify--logos" width="31.88" height="32" preserveAspectRatio="xMidYMid meet" viewBox="0 0 256 257"><defs><linearGradient id="IconifyId1813088fe1fbc01fb466" x1="-.828%" x2="57.636%" y1="7.652%" y2="78.411%"><stop offset="0%" stop-color="#FF00DC"/><stop offset="100%" stop-color="#FF5E00"/></linearGradient><linearGradient id="IconifyId1813088fe1fbc01fb467" x1="43.376%" x2="50.316%" y1="2.242%" y2="89.03%"><stop offset="0%" stop-color="#FFEA83"/><stop offset="8.333%" stop-color="#FFDD35"/><stop offset="100%" stop-color="#FFA800"/></linearGradient></defs><path fill="url(#IconifyId1813088fe1fbc01fb466)" d="M128.001 0C57.317 0 0 57.307 0 128c0 70.694 57.317 128 128.001 128C198.7 256 256 198.694 256 128.001C256 57.307 198.7 0 128.001 0Zm.001 239.729c-61.644 0-111.129-49.475-111.129-111.129c0-61.644 49.485-111.134 111.129-111.134c61.644 0 111.129 49.49 111.129 111.134c0 61.654-49.485 111.129-111.129 111.129Z"/><path fill="url(#IconifyId1813088fe1fbc01fb467)" d="M128.3 47.466c-44.632 0-81.468 36.824-81.468 81.466c0 44.651 36.836 81.466 81.468 81.466s81.468-36.815 81.468-81.466c0-44.642-36.836-81.466-81.468-81.466Zm47.078 109.149h-37.25v37.25h-19.665v-37.25h-37.25v-19.665h37.25v-37.25h19.665v37.25h37.25v19.665Z"/></svg>
